<svg width="50" height="50" viewBox="0 0 50 50" fill="none" xmlns="http://www.w3.org/2000/svg">
<path fill-rule="evenodd" clip-rule="evenodd" d="M12.3902 3.53294C12.3902 3.62119 12.3902 3.68319 12.3902 3.74519C12.3902 10.5617 12.3885 17.3784 12.393 24.1949C12.3935 24.8894 12.4062 25.5857 12.4587 26.2777C12.5517 27.5017 12.8537 28.6809 13.3255 29.8142C14.467 32.5559 16.3455 34.6432 18.9387 36.0837C20.1227 36.7414 21.3907 37.1754 22.7235 37.4164C23.6785 37.5892 24.6425 37.6469 25.6102 37.5922C27.8252 37.4667 29.8747 36.8147 31.735 35.6014C34.1555 34.0227 35.8442 31.8632 36.7997 29.1354C37.1607 28.1052 37.3712 27.0424 37.4432 25.9524C37.6197 23.2839 37.0297 20.7974 35.629 18.5192C34.1615 16.1322 32.1107 14.4242 29.5067 13.3862C28.5045 12.9867 27.4647 12.7309 26.3922 12.6124C23.4422 12.2869 20.7097 12.9122 18.196 14.4912C18.169 14.5082 18.1397 14.5219 18.098 14.5444C18.0955 14.4877 18.0917 14.4439 18.0917 14.4002C18.0915 10.0127 18.092 5.62519 18.0885 1.23769C18.0885 1.12344 18.1255 1.08044 18.2297 1.05169C19.3545 0.742191 20.4945 0.507441 21.6502 0.351691C23.057 0.161941 24.471 0.101691 25.8887 0.152441C27.0297 0.193191 28.163 0.315691 29.2885 0.514441C32.1565 1.02044 34.858 1.99144 37.373 3.45744C41.9022 6.09694 45.2915 9.79144 47.5337 14.5324C48.4565 16.4837 49.094 18.5274 49.4765 20.6507C49.7942 22.4157 49.9182 24.1959 49.8487 25.9867C49.6845 30.2337 48.5232 34.1899 46.3457 37.8424C44.9077 40.2542 43.107 42.3599 40.9572 44.1667C39.0405 45.7772 36.9282 47.0689 34.6235 48.0454C33.0947 48.6932 31.5152 49.1789 29.8882 49.5082C27.974 49.8954 26.0387 50.0599 24.0882 49.9809C23.245 49.9469 22.4012 49.8684 21.5635 49.7639C19.3715 49.4904 17.2617 48.8992 15.2287 48.0379C12.6645 46.9514 10.3445 45.4772 8.27548 43.6129C5.56848 41.1739 3.48498 38.2842 2.03598 34.9392C1.24723 33.1177 0.69148 31.2274 0.35673 29.2707C0.0684802 27.5854 -0.0505198 25.8877 0.0194802 24.1814C0.25723 18.3907 2.25173 13.2779 5.99973 8.85819C7.78798 6.74969 9.88923 5.00444 12.269 3.59594C12.3 3.57769 12.333 3.56244 12.3902 3.53294Z" fill="#FFC700"/>
<path fill-rule="evenodd" clip-rule="evenodd" d="M24.9319 32.6642C20.7406 32.6629 17.3346 29.2549 17.3391 25.0609C17.3436 20.8371 20.7889 17.4146 25.0434 17.4724C29.1681 17.5284 32.5316 20.8844 32.5299 25.0789C32.5281 29.2636 29.1181 32.6654 24.9319 32.6642Z" fill="#FFC700"/>
</svg>
